/* XPM */
static char* xpm_tilehorz[] = {
"16 16 8 1",
"  c None",
"! c #000000",
"# c #000000",
"$ c #C0C0C0",
"% c #FFFFFF",
"& c #808080",
"' c #000080",
"( c #FFFFFF",
"                ",
" '''''''''''''' ",
" ''''''''''''''&",
" #$%%%%%%%%%%%#&",
" #$%%%%%%%%%%%#&",
" #$%%%%%%%%%%%#&",
" #$%%%%%%%%%%%#&",
" ''''''''''''''&",
" ''''''''''''''&",
" #$(((((((((((#&",
" #$%%%%%%%%%%%#&",
" #$%%%%%%%%%%%#&",
" #$%%%%%%%%%%%#&",
" ##############&",
"  &&&&&&&&&&&&&&",
"                "};
