/* XPM */
static char* xpm_paste[] = {
"16 16 8 1",
"  c None",
"! c #000000",
"# c #808000",
"$ c #000080",
"% c #808080",
"& c #C0C0C0",
"' c #FFFF00",
"( c #FFFFFF",
"                ",
"     !!!!       ",
" !!!!!''!!!!!   ",
"!#%#!'!!'!%#%!  ",
"!%%!&&&&&&!%#!  ",
"!#%!!!!!!!!%%!  ",
"!%#%#%#%#%#%#!  ",
"!#%#%#$$$$$$$!  ",
"!%#%#%$((((($$  ",
"!#%#%#$((((($($ ",
"!%#%#%$($$$($$$$",
"!#%#%#$(((((((($",
"!%#%#%$($$$$$$($",
" !!!!!$(((((((($",
"      $$$$$$$$$$",
"                "};
