/* XPM */
static char* xpm_cancel[] = {
"16 16 4 1",
"  c None",
"! c #000000",
"# c #800000",
"$ c #FF0000",
"                ",
"                ",
"                ",
"                ",
"   $#     $#    ",
"    $#   $#     ",
"     $# $#      ",
"      $$#       ",
"      $$#       ",
"     $# $#      ",
"    $#   $#     ",
"   $#     $#    ",
"                ",
"                ",
"                ",
"                "};
