/* XPM */
static char* xpm_newfield[] = {
"16 16 8 1",
"  c None",
"! c #000000",
"# c #000000",
"$ c #C0C0C0",
"% c #FFFFFF",
"& c #FFFFFF",
"' c #0000FF",
"( c #FFFF00",
"                ",
"  ###########   ",
"  #'''''''''#   ",
"  ###########   ",
"  #%%%%%%%%%#   ",
"  #%&&&$%%&%#   ",
"  #&&%$%$&%%#   ",
"  #&&$&%&$%%#   ",
"  #&$&&%&%$!!!  ",
"  #&%$&%&$%!(!  ",
"  #&%&$%$!!!(!!!",
"  #%&%%$%!(((((!",
"  #%%%%%%!!!(!!!",
"  #########!(!  ",
"           !!!  ",
"                "};
