/* XPM */
static char* xpm_structure[] = {
"16 16 13 1",
"  c None",
"! c #000000",
"# c #000000",
"$ c #000000",
"% c #808080",
"& c #00FFFF",
"' c #FFFFFF",
"( c #C0C0C0",
") c #00FFFF",
"* c #FFFFFF",
"+ c #FFFFFF",
", c #FFFFFF",
"- c #0000FF",
" $$$$$$$$$$$$$$ ",
" $------------$ ",
" $$$$$$$$$$$$$$ ",
" $,+'++'++'***$ ",
" $,',%%',%%'',##",
" $,'(%''',%('$)#",
" $,'(%''',%($&)#",
" $,(%(''',($&&)#",
" $,,(%''',#))#)#",
" $,,(%,''#))##)#",
" $,,,%%'$))#(#)#",
" $,''''#&)#(*#)#",
" $$####&&#####)#",
"     #)))))))))#",
"    ############",
"                "};
