/* XPM */
static char* xpm_execute[] = {
"16 16 6 1",
"  c None",
"! c #000000",
"# c #000000",
"$ c #008000",
"% c #808080",
"& c #808080",
"                ",
"                ",
"    %%          ",
"    %$%         ",
"    %$$%        ",
"    %$$$%       ",
"    %$$$$%      ",
"    %$$$$$%     ",
"    %$$$$&#     ",
"    %$$$&#      ",
"    %$$&#       ",
"    %$&#        ",
"    %&#         ",
"    &#          ",
"                ",
"                "};
