/* XPM */
static char* xpm_tilevert[] = {
"16 16 8 1",
"  c None",
"! c #000000",
"# c #000000",
"$ c #C0C0C0",
"% c #808080",
"& c #FFFFFF",
"' c #000080",
"( c #FFFFFF",
"                ",
" '''''''''''''  ",
" '''''''''''''% ",
" #$&&&&#$&&&&#% ",
" #$&&&&#$&&&&#% ",
" #$&&&&#$&&&&#% ",
" #$&&&&#$&&&&#% ",
" #$&&&&#$&&&&#% ",
" #$&&&&#$&&&&#% ",
" #$&&&&#$&&&&#% ",
" #$&&&&#$&&&&#% ",
" #$&&&&#$&&&&#% ",
" #$((((#$((((#% ",
" #############% ",
"  %%%%%%%%%%%%% ",
"                "};
