/* XPM */
static char* xpm_field_insert[] = {
"16 16 8 1",
"  c None",
"! c #000000",
"# c #000000",
"$ c #008000",
"% c #808080",
"& c #00FF00",
"' c #0000FF",
"( c #FFFFFF",
"          $&    ",
"          &$%   ",
"######### $&%   ",
"#''''''$&$&$&$& ",
"#''''''&$&$&$&$%",
"#########%&$%%%%",
"#(((((((#%$&%   ",
"#(((!(((#%&$%   ",
"#(((!!((#% %%   ",
"#(!!!!!(#%      ",
"#(((!!((#%      ",
"#(((!(((#%      ",
"#(((((((#%      ",
"#########%      ",
" %%%%%%%%%      ",
"                "};
