/* XPM */
static char* xpm_field_delete[] = {
"16 16 9 1",
"  c None",
"! c #000000",
"# c #000000",
"$ c #800000",
"% c #808080",
"& c #C0C0C0",
"' c #FF0000",
"( c #0000FF",
") c #FFFFFF",
"       '$    '$ ",
"        '$  '$  ",
"#########'$'$   ",
"#(((((((# '$    ",
"#(((((((#'$'$   ",
"########'$  '$  ",
"#))))))'$%   '$ ",
"#)))&)))#%      ",
"#))&)&))#%      ",
"#)&)))&)#%      ",
"#))&)&))#%      ",
"#)))&)))#%      ",
"#)))))))#%      ",
"#########%      ",
" %%%%%%%%%      ",
"                "};
