/* XPM */
static char* xpm_workspace[] = {
"16 16 7 1",
"  c None",
"! c #000000",
"# c #000000",
"$ c #000080",
"% c #C0C0C0",
"& c #FFFF00",
"' c #FFFFFF",
"  ##############",
"  #$$$$$$$$$$$$#",
"  #$$$$$$$$$$$$#",
"######'''''''''#",
"#&'''##%%%%%%%'#",
"#&$######''''''#",
"#&'#&'''##%%%%'#",
"#&$#&$######'''#",
"#&'#&'#&'$'##%'#",
"#&$#&$#&$$$###'#",
"#&'#&'#&'$'$'#'#",
"####&$#&$$$$$#'#",
"   #&'#&'$'$'###",
"   ####&$$$$$#  ",
"      #&'$'$'#  ",
"      ########  "};
