/* XPM */
static char* xpm_cascade[] = {
"16 16 5 1",
"  c None",
"! c #000000",
"# c #000080",
"$ c #808080",
"% c #FFFFFF",
"                ",
" #########      ",
" #########      ",
" #%%%%%%%#      ",
" #%#########    ",
" #%#########    ",
" #%#%%%%%%%#    ",
" ###%#########  ",
"  $#%#########$ ",
"   #%#%%%%%%%#$ ",
"   ###%%%%%%%#$ ",
"    $#%%%%%%%#$ ",
"     #%%%%%%%#$ ",
"     #########$ ",
"      $$$$$$$$$ ",
"                "};
