/* XPM */
static char* xpm_sort[] = {
"16 16 6 1",
"  c None",
"! c #000000",
"# c #800000",
"$ c #000080",
"% c #808080",
"& c #FF0000",
"    $       !   ",
"   %$%      !   ",
"   $ $      !   ",
"  %$ $%     !   ",
"  $%$%$     !   ",
" %$   $%    !   ",
" %$   $%    !   ",
"            !   ",
" %#&#&#%    !   ",
" %&  %&%    !   ",
"    %#%  %!!!!!%",
"   %&%    %!!!% ",
"  %#%      !!!  ",
" %&%  &%   %!%  ",
" %#&#&#%    !   ",
"                "};
