/* XPM */
static char* xpm_job_small[] = {
"14 12 5 1",
"  c None",
"! c #000000",
"# c #808080",
"$ c #000080",
"% c #FF0000",
"              ",
"     %%%%%    ",
"    %%%%%%%   ",
"   %%%   #%#  ",
"   %%   %%%%% ",
"         %%%  ",
"    $     %   ",
"   $$$        ",
"  $$$$$   $$  ",
"   #$#   $$$  ",
"    $$$$$$$   ",
"     $$$$$    "};
