/* XPM */
static char* xpm_database[] = {
"16 16 6 1",
"  c None",
"! c #000000",
"# c #808080",
"$ c #C0C0C0",
"% c #FFFFFF",
"& c #FF0000",
"  ########      ",
" #$%%%%%##!     ",
" #$$$$$$##!     ",
" #########!     ",
" #%%%%%%##!     ",
" #$$$$########  ",
" #####$%%%%%##! ",
" #%%%#$$$$$$##! ",
" #$$$#########! ",
" #$$$#%%%%%%#!! ",
"  !!!#$$$$$$!#! ",
"     #########! ",
"     #%%%%%%##! ",
"     #$$$&&$##! ",
"     #$$$$$$#!  ",
"      !!!!!!!   "};
