/* XPM */
static char* xpm_consolepanel_small[] = {
"14 12 4 1",
"  c None",
"! c #000000",
"# c #C0C0C0",
"$ c #FFFFFF",
"   !!!!!!!!!  ",
"  !$$$$$$!##! ",
" !$$####$!##! ",
" !$$$$$$$!!!  ",
" !$$####$!    ",
"  !$$$$$$#!   ",
"  !$$####$!   ",
"   !$$$$$$$!  ",
"  !!!!!!!!!!  ",
" !$$$$$$$!##! ",
" !#$#$$#$!##! ",
"  !!!!!!!!!!  "};
