/* XPM */
static char* xpm_hexview[] = {
"16 16 4 1",
"  c None",
"! c #000000",
"# c #808080",
"$ c #FFFFFF",
"                ",
" ############## ",
" #$$!!$$$$!$$$# ",
" #$!$$!$$!!$$$# ",
" #$!$$!$$$!$$$# ",
" #$!$$!$$$!$$$# ",
" #$$!!$$$!!!$$# ",
" #$$$$$$$$$$$$# ",
" #$!!!!$$!!!!$# ",
" #$!$$$$$!$$$$# ",
" #$!!!$$$!!!$$# ",
" #$!$$$$$!$$$$# ",
" #$!$$$$$!!!!$# ",
" ############## ",
"                ",
"                "};
