/* XPM */
static char* xpm_plus_small[] = {
"14 12 4 1",
"  c None",
"! c #000000",
"# c #000000",
"$ c #808080",
"     ##       ",
"     ##$      ",
"     ##$      ",
"     ##$      ",
" ##########   ",
" ##########$  ",
"  $$$##$$$$$  ",
"     ##$      ",
"     ##$      ",
"     ##$      ",
"      $$      ",
"              "};
