/* XPM */
static char* xpm_rightarrow[] = {
"16 16 4 1",
"  c None",
"! c #000000",
"# c #000000",
"$ c #808080",
"                ",
"                ",
"                ",
"                ",
"       ##       ",
"       $##      ",
"        $##     ",
"   #########    ",
"   ##########   ",
"   #########    ",
"        $##     ",
"       $##      ",
"       ##       ",
"                ",
"                ",
"                "};
