/* XPM */
static char* xpm_consolepanel[] = {
"16 16 9 1",
"  c None",
"! c #000000",
"# c #000000",
"$ c #000080",
"% c #808080",
"& c #FFFF00",
"' c #FF0000",
"( c #FFFFFF",
") c #FFFFFF",
"$$$$$$$$$$$$$   ",
"$$$$$$$$$$$$$%  ",
"!((#((((((((#%  ",
"!((#(((!!!!(#%  ",
"!((#(%!!&&!!#%  ",
"!((#%%&)!!((#%  ",
"!((%!&)&!(((#%  ",
"!((!%)&!!(((#%  ",
"!(!&%!!!'!((#%  ",
"!((!&!((!'!(#%  ",
"!((%!((((!'!%%  ",
"!!!!!!!!!!#'#%  ",
" %%%%%%%%%%!'!  ",
"            !'! ",
"             !! ",
"                "};
