/* XPM */
static char* xpm_field_add[] = {
"16 16 9 1",
"  c None",
"! c #000000",
"# c #000000",
"$ c #008000",
"% c #808080",
"& c #C0C0C0",
"' c #00FF00",
"( c #0000FF",
") c #FFFFFF",
"          $'    ",
"          '$%   ",
"######### $'%   ",
"#(((((($'$'$'$' ",
"#(((((('$'$'$'$%",
"#########%'$%%%%",
"#)))))))#%$'%   ",
"#)))&)))#%'$%   ",
"#))&)&))#% %%   ",
"#)&)))&)#%      ",
"#))&)&))#%      ",
"#)))&)))#%      ",
"#)))))))#%      ",
"#########%      ",
" %%%%%%%%%      ",
"                "};
