/* XPM */
static char* xpm_delete_small[] = {
"14 12 5 1",
"  c None",
"! c #000000",
"# c #800000",
"$ c #FF0000",
"% c #FFFFFF",
" #%        #$ ",
" $#$%     #$% ",
" $#$#%   #$%  ",
"   #$#% $%    ",
"    $#$##%    ",
"     $#$%     ",
"    #$#$$%    ",
"   #$#% #$%   ",
"  #$$%   $#%  ",
" #$#%     #%  ",
" $$#%      $% ",
"  #%          "};
