/* XPM */
static const char* xpm_folder_large[] = {
"32 32 7 1",
"  c None",
"! c #000000",
"# c #808080",
"$ c #C0C0C0",
"% c #FFFFFF",
"& c #FFFF00",
"' c #FFFFFF",
"                                ",
"                                ",
"                                ",
"                                ",
"                                ",
"     #######                    ",
"    #$&$&$&$#                   ",
"   #$&$&$&$&$#                  ",
"   #&$&$&$&$&###############    ",
"   #%%%%%%%''''''''''''''''#!   ",
"   #'$&$&$&$&$&$&$&$&$&$&$&#!   ",
"   #'&$&$&$&$&$&$&$&$&$&$&$#!   ",
"   #'$&$&$&$&$&$&$&$&$&$&$&#!   ",
"   #'&$&$&$&$&$&$&$&$&$&$&$#!   ",
"   #'$&$&$&$&$&$&$&$&$&$&$&#!   ",
"   #'&$&$&$&$&$&$&$&$&$&$&$#!   ",
"   #'$&$&$&$&$&$&$&$&$&$&$&#!   ",
"   #'&$&$&$&$&$&$&$&$&$&$&$#!   ",
"   #'$&$&$&$&$&$&$&$&$&$&$&#!   ",
"   #'&$&$&$&$&$&$&$&$&$&$&$#!   ",
"   #'$&$&$&$&$&$&$&$&$&$&$&#!   ",
"   #'&$&$&$&$&$&$&$&$&$&$&$#!   ",
"   #'$&$&$&$&$&$&$&$&$&$&$&#!   ",
"   #'&$&$&$&$&$&$&$&$&$&$&$#!   ",
"   #'$&$&$&$&$&$&$&$&$&$&$&#!   ",
"   #########################!   ",
"     !!!!!!!!!!!!!!!!!!!!!!!!   ",
"                                ",
"                                ",
"                                ",
"                                ",
"                                "};

