/* XPM */
static const char *xpm_kirixlogo[] = {
/* columns rows colors chars-per-pixel */
"130 32 33 1",
"r c #FFBB7F",
"q c #D9D9D9",
"  c #FFFFFF",
"5 c #ADADAD",
"9 c #FF9A40",
"0 c #FF9130",
"& c #D3D3D3",
"@ c #FFD5AF",
"% c #CCCCCC",
"e c #FFCC9F",
"# c #F9F9F9",
"8 c #A7A7A7",
"- c #F2F2F2",
"4 c #A0A0A0",
"X c #FFAB60",
"= c #FFA250",
"6 c #C6C6C6",
". c #FFE6CF",
"3 c #FFDDBF",
"< c #ECECEC",
": c #9A9A9A",
"O c #FF7800",
"1 c #C0C0C0",
"w c #FFB370",
"> c #E6E6E6",
"7 c #FFF7EF",
"$ c #DFDFDF",
"* c #FFEEDF",
"+ c #FF8920",
"; c #BABABA",
"o c #FF8010",
", c #B3B3B3",
"2 c #FFC48F",
/* pixels */
"               .XoOO+@                   #$%&                                                                                     ",
"             *=OOOOOOO*                -;::::>                 #%,;>                      <;,1#                                   ",
"            2oOOOOOOOO3                %:::::>                 ;::::>                    #4:::5                         %:::,:- 6,",
"          7=OOOOOOOOOO3                %:::::>                 :::::1                    &:::::>                          : >4% 8,",
" 7X9X7   70OOOOOOOOOO+                 %:::::>                 :::::1                    %:::::>                          : q18$1:",
" 0OOOo.  wOOOOOOOOOOO@                 %:::::>                 ,::::>                    -4:::4#                          : %%;8<8",
"eOOOOO07 OOOOOOOOOOOr                  %:::::>                 #148q                      >5:;<                           : %>q8 ,",
"XOOOOOOw wOOOOOOOOOX *3                %:::::>                                                                                    ",
"9OOOOOOO* XOOOOOOOw *oOor7             %:::::>      $%%%%%$      -$%-       -$%;,,,,;       <&q    -%%%%%%#       #%%%%%q         ",
"XOOOOOOOX  e+OOO+@  XOOOO+3            %:::::>     >::::::%    $5:::;     $5:::::::::    #14:::>   -::::::;       ;:::::%         ",
"rOOOOOOOO7   73*   7OOOOOOO2           %:::::>    -4:::::,     :::::,    -:::::::::::    &:::::>    %::::::$     >:::::8#         ",
"eOOOOOOOO3         3OOOOOOOOX          %:::::>    5:::::5#     :::::,    >:::::::::::    %:::::>     5:::::4#    8:::::>          ",
"*OOOOOOOO@         3OOOOOOOOOX         %:::::>   6:::::4<      :::::,    >::::::::::5    %:::::>     <::::::;   %:::::6           ",
" +OOOOOOO3         3OOOOOOOOOOe        %:::::>  $::::::$       :::::,    >:::::1<        %:::::>      %::::::$ -:::::8#           ",
" wOOOOOOo           oOOOOOOOOOo7       %:::::> -4:::::&        :::::,    >:::::%         %:::::>       5:::::4#,:::::>            ",
" *OOOOOO2           2OOOOOOOOOO3       %:::::> 5:::::1         :::::,    >:::::%         %:::::>       <4:::::5:::::6             ",
"  XOOOOX             rOOOOOOOOO3       %:::::>1:::::5#         :::::,    >:::::%         %:::::>        &::::::::::8#             ",
"  70O+@               39OOOOOOO.       %:::::1:::::4#          :::::,    >:::::%         %:::::>         ,:::::::::>              ",
"   7.                   3=OOOOX        %::::::::::4<           :::::,    >:::::%         %:::::>         -4:::::::6               ",
"    .errr27       72=9re7 733.         %::::::::::&            :::::,    >:::::%         %:::::>          &::::::8#               ",
" *XoOOOOOOoe     eoOOOOOX              %::::::::::,            :::::,    >:::::%         %:::::>          %:::::::<               ",
"eoOOOOOOOOOO@   @OOOOOOO9              %:::::::::::%           :::::,    >:::::%         %:::::>         <::::::::5               ",
"oOOOOOOOOOOOo7  +OOOOOOO9              %:::::5::::::>          :::::,    >:::::%         %:::::>         5:::::::::%              ",
"OOOOOOOOOOOOO@ 3OOOOOOOOr              %:::::$5:::::4#         :::::,    >:::::%         %:::::>        %:::::::::::<             ",
"oOOOOOOOOOOOOr rOOOOOOOO3              %:::::><::::::,         :::::,    >:::::%         %:::::>       <:::::,8:::::5             ",
"@OOOOOOOOOOOO= =OOOOOOOo               %:::::> %::::::%        :::::,    >:::::%         %:::::>       5::::4->::::::%            ",
" 39OOOOOOOOOOr 9OOOOOOOX               %:::::>  ,::::::<       :::::,    >:::::%         %:::::>      %:::::%  6::::::<           ",
"   *@rX999Xr.  9OOOOOOO*               %:::::>  -4:::::8#      :::::,    >:::::%         %:::::>     <:::::5   #8:::::5           ",
"               9OOOOOOX                %:::::>   &::::::;      :::::,    >:::::%         %:::::>     5:::::>    >::::::%          ",
"               =OOOOOo*                %:::::>    ;::::::&     :::::,    >:::::%         %:::::>    %:::::1      1::::::<         ",
"               eOOOOOe                 %:::::>    #4::::::<    :::::,    >:::::%         %:::::>   <:::::4#      #4:::::8#        ",
"                XOO+@                  q:::::-     >::::::1    4::::6    #4::::&         q:::::<   ;:::::$        $::::::>        "
};
