/* XPM */
static char* xpm_columnsortup[] = {
"16 16 2 1",
"x c #000000",
"  c None",
"                ",
"                ",
"                ",
"                ",
"                ",
"        x       ",
"       xxx      ",
"      xxxxx     ",
"     xxxxxxx    ",
"    xxxxxxxxx   ",
"                ",
"                ",
"                ",
"                ",
"                ",
"                ",
};
