/* XPM */
static char* xpm_columnsortnone[] = {
"16 16 2 1",
"x c #000000",
"  c None",
"                ",
"                ",
"                ",
"                ",
"    xxxxxxxx    ",
"                ",
"    xxxxxxxx    ",
"                ",
"    xxxxxxxx    ",
"                ",
"    xxxxxxxx    ",
"                ",
"                ",
"                ",
"                ",
"                ",
};
